<svg width="17" height="17" viewBox="0 0 17 17" fill="none" xmlns="http://www.w3.org/2000/svg">
<path d="M4.59219 1.39449C5.34403 1.73293 5.82665 2.16033 5.91411 2.22515C5.87423 2.0337 5.72611 1.11635 5.64096 0.544988C6.07909 0.844236 7.09647 1.53771 7.4302 1.76309C7.56677 1.35003 8.03862 0.00226184 8.03862 0.00226184C8.03862 0.00226184 8.89178 1.35981 9.03751 1.58068C9.21559 1.39751 10.236 0.282668 10.4999 0C10.5444 0.641467 10.605 1.55956 10.6188 1.69751C10.671 1.62892 11.0616 1.09146 11.716 0.595486C11.4321 1.14425 11.2971 1.90254 11.2365 2.51158C10.5927 2.33446 9.91377 2.23948 9.2125 2.23948C7.86747 2.23948 6.6046 2.58772 5.51286 3.19678C5.31416 2.60958 5.00344 1.87766 4.59141 1.39449H4.59219ZM12.4311 9.03479L12.4295 8.09032C12.4295 8.09032 12.0006 7.95459 11.541 7.60488C10.6204 7.74203 9.50406 8.65185 9.50406 8.65185C9.50406 8.65185 9.8815 9.35442 10.2928 10.112C11.0178 10.2099 12.085 9.31216 12.4295 9.03401L12.4311 9.03479ZM13.3579 10.7481C13.3579 10.7481 13.2842 10.3577 12.9689 9.9921L12.2508 10.0094C12.2508 10.0094 11.2817 10.828 10.6902 10.8469C10.6902 10.8469 11.0163 11.4424 11.1797 11.7529C11.5058 11.6836 12.0782 11.4303 12.3083 11.168C12.3083 11.168 12.461 11.6512 12.4318 12.2202C12.7556 12.0349 13.2022 11.5358 13.3587 10.7474L13.3579 10.7481ZM13.6533 7.64331C13.2912 7.94336 12.9834 8.10918 12.9834 8.10918L12.9865 9.05818C13.2466 9.34234 13.5021 9.57754 13.6939 10.0064C14.0569 9.36498 13.9878 8.41974 13.6533 7.64331ZM13.7323 6.79759L13.7891 6.36642C13.8083 6.12897 13.7461 5.73551 13.4077 5.32696C12.9881 4.86414 11.9324 4.11941 11.429 3.94076C11.429 3.94076 11.3876 4.4179 11.2142 4.6478C10.2114 3.93623 9.71884 3.75834 9.71884 3.75834C8.61709 3.91287 7.90975 4.33047 7.52535 4.65836L7.86063 4.93876C7.19693 5.13926 6.76573 5.70007 6.76573 5.70007C6.77034 5.70988 7.35883 5.79203 7.35883 5.79203C7.35883 5.79203 7.29901 6.47119 8.16441 6.89708C8.90478 7.26115 9.97128 6.80963 10.9748 7.20462C10.3142 6.45611 9.86004 6.12144 9.86004 6.12144C9.86004 6.12144 9.59767 6.06792 9.41274 6.06868C9.18256 6.07018 8.83958 6.1154 8.46212 5.97068C8.28258 5.90209 8.07235 5.77998 7.90821 5.67823C7.90821 5.67823 8.37158 5.21087 9.04752 5.10761C9.04752 5.10761 9.65748 5.27646 10.1416 5.62771C10.4631 5.32017 10.7983 5.32997 10.7983 5.32997C10.7983 5.32997 10.4661 5.63526 10.5667 6.00461C11.05 6.42823 11.5741 7.03352 11.5741 7.03352C12.108 6.74557 13.2681 6.8119 13.5067 7.08327C13.2045 6.69884 12.7694 6.37772 12.4326 6.1026C12.392 5.95863 12.0244 5.45511 11.9623 5.40912C11.9623 5.40912 12.3121 5.5154 12.6236 5.78978C12.7141 5.66466 12.8814 5.53651 13.1101 5.47997C13.3456 5.67369 13.3862 5.97069 13.3802 6.02043C13.2734 6.14406 13.1707 6.19532 13.1707 6.19532L13.7354 6.79608L13.7921 6.36491M14.2985 7.14733C15.1602 8.71145 15.3695 10.5853 14.7711 12.4524C14.7351 12.4125 14.2793 11.912 14.0906 11.707C13.9709 13.5326 13.4239 14.9505 11.828 16.1482C11.828 16.1482 11.6761 15.5746 11.5871 15.2158C8.95546 17.1107 6.6929 16.2439 6.05684 15.9327C6.54941 13.7135 6.16809 12.4396 5.83813 11.468C5.13771 12.5986 4.42028 13.4768 3.70447 14.0701C3.21498 12.9469 3.17742 10.8597 3.57327 9.6265C3.44208 9.66121 2.66868 9.90088 2.23979 10.0291C2.41247 8.89683 3.17356 7.381 3.9776 6.62571C3.83718 6.60159 3.42523 6.5443 3.09834 6.49079C3.29935 6.08901 3.88245 5.34278 4.77634 4.64252C4.75024 5.13625 4.93669 5.72494 5.50439 6.00762C5.14456 5.38725 5.10083 4.62141 5.47606 4.22418C5.85275 3.82468 6.48497 3.96186 6.88853 4.27242C6.81407 4.05683 6.65141 3.80734 6.41129 3.643C7.52535 3.13346 8.87722 2.83872 10.4101 3.07088C10.6465 3.27367 10.8989 3.55859 11.0385 3.73496C11.0446 3.60834 11.0262 3.36563 10.9856 3.18094C11.6124 3.32718 12.2668 3.56236 12.9451 3.90684C11.7375 2.7234 9.28995 2.36761 7.24759 2.942C6.76882 3.07692 6.3146 3.25482 5.88725 3.46512C5.43688 3.4704 5.14688 3.741 4.9812 3.9807C3.67458 4.83249 2.71626 5.95334 2.25441 6.89255C2.35721 6.91442 2.66638 6.95209 2.95261 7.00034C2.36875 7.81895 1.60527 9.36875 1.65516 10.7594C1.78789 10.7202 2.50146 10.5055 2.85129 10.3938C2.66407 11.621 2.71858 13.6826 3.52878 14.8615C4.54922 14.1514 5.14071 13.4052 5.63257 12.7321C5.75915 13.3382 5.88264 14.4153 5.44766 16.2002C5.80057 16.4678 8.35858 17.7877 11.2518 16.0631L11.4934 17L11.8066 16.8002C13.5673 15.6764 14.2433 14.1582 14.4796 12.922C14.5609 13.0102 14.8808 13.3547 14.9959 13.4693C15.4378 12.2851 16.321 9.43735 14.2962 7.14808L14.2985 7.14733Z" fill="white"/>
</svg>
